<svg width="130" height="130" viewBox="0 0 130 130" fill="none" xmlns="http://www.w3.org/2000/svg">
<path fill-rule="evenodd" clip-rule="evenodd" d="M5.36038 18.5736C-0.497486 24.4314 -0.497486 33.9289 5.36038 39.7868L30.1091 64.5355L5.36038 89.2842C-0.497486 95.1421 -0.497486 104.64 5.36038 110.497L19.5025 124.64C25.3604 130.497 34.8579 130.497 40.7157 124.64L65.4644 99.8908L90.2132 124.64C96.0711 130.497 105.569 130.497 111.426 124.64L125.569 110.497C131.426 104.64 131.426 95.1421 125.569 89.2842L100.82 64.5355L125.569 39.7868C131.426 33.9289 131.426 24.4314 125.569 18.5736L111.426 4.43142C105.569 -1.42644 96.071 -1.42644 90.2132 4.43142L65.4645 29.1802L40.7157 4.43143C34.8579 -1.42643 25.3604 -1.42643 19.5025 4.43143L5.36038 18.5736Z" fill="#D9D9D9"/>
</svg>
